<?xml version="1.0" encoding="utf-8"?>
<!-- Generator: Adobe Illustrator 21.0.0, SVG Export Plug-In . SVG Version: 6.00 Build 0)  -->
<svg version="1.1" id="Layer_1" xmlns="http://www.w3.org/2000/svg" xmlns:xlink="http://www.w3.org/1999/xlink" x="0px" y="0px"
	 viewBox="0 0 418.9 301.4" style="enable-background:new 0 0 418.9 301.4;" xml:space="preserve">
<style type="text/css">
	.st0{fill:#231F20;}
	.st1{fill:#D91F33;}
	.st2{fill-rule:evenodd;clip-rule:evenodd;fill:#0F9964;}
	.st3{fill:#0F9964;}
	.st4{fill:#F9FCFC;}
	.st5{fill:#FFFFFF;}
</style>
<g>
	<rect x="209.9" y="2.7" class="st0" width="2.3" height="179.9"/>
	<g>
		<path class="st1" d="M31.8,209.5V221H16.3v23.4h14.9v11.5H16.3v25H32v11.5H3.6v-82.8H31.8z"/>
		<path class="st1" d="M72.3,250.5l11.6,41.9h-13l-7-29.7l-7.5,29.7H44.2l11.6-40.8l-11.4-42h13l6.9,29.6l7.1-29.6h12.2L72.3,250.5z
			"/>
		<path class="st1" d="M105.3,292.3V221H94v-11.5h35.4V221H118v71.3H105.3z"/>
		<path class="st1" d="M170.6,209.5V221h-15.5v23.4H170v11.5h-14.9v25h15.7v11.5h-28.4v-82.8H170.6z"/>
		<path class="st1" d="M209.8,292.3l-12.9-55.7l0.1,14.5v41.2h-11.4v-82.8h14.8l11.8,51.1l-0.1-13.8v-37.3h11.4v82.8H209.8z"/>
		<path class="st1" d="M275,264.2v13.5c0,10.3-5.1,15.4-15.4,15.4h-5.6c-10.3,0-15.3-5.1-15.3-15.3v-17.5h12.3v17
			c0,3.2,1.5,4.7,4.9,4.7h1.7c3.3,0,4.9-1.5,4.9-4.7V266c0-3.4-1.2-5-3.6-6.7l-12.8-9.3c-5.7-4-7.3-7.9-7.3-14.3v-11.4
			c0-10.3,5.1-15.4,15.4-15.4h5.3c10.2,0,15.3,5.1,15.3,15.3v15h-12.4v-14.5c0-3.2-1.5-4.7-4.7-4.7h-1.5c-3.2,0-4.7,1.5-4.7,4.7v9.2
			c0,3.4,1.2,5.1,3.6,6.7l12.8,9.3C273.3,253.9,275,257.5,275,264.2z"/>
		<path class="st1" d="M302.7,292.3h-12.7v-82.8h12.7V292.3z"/>
		<path class="st1" d="M340.4,293.1h-6.7c-10.3,0-15.4-5.1-15.4-15.4v-53.5c0-10.3,5.1-15.4,15.4-15.4h6.7
			c10.3,0,15.4,5.1,15.4,15.4v53.5C355.8,288,350.7,293.1,340.4,293.1z M338.4,220h-2.6c-3.3,0-4.9,1.5-4.9,4.8v52.3
			c0,3.3,1.5,4.8,4.9,4.8h2.6c3.2,0,4.7-1.5,4.7-4.8v-52.3C343.1,221.5,341.6,220,338.4,220z"/>
		<path class="st1" d="M395.3,292.3l-12.9-55.7l0.1,14.5v41.2h-11.4v-82.8H386l11.8,51.1l-0.1-13.8v-37.3h11.4v82.8H395.3z"/>
	</g>
	<g>
		<path class="st2" d="M409.1,114.9c0.2,7.3-2.9,13.1-6.3,16.5c-2.2,2.1-5,3.1-7.3,4.8c-2,1.6-4.4,4-5.8,6.5
			c-1.3,2.4-1.5,4.9-2.4,6.8c-2.2,4.3-6.1,8-10.9,10.2c-9.6,4.3-20.4-1-25.5-5.6c-3.7-3.3-8-8.6-10.2-13.8c-2.4-5.9-4-14.6-5.3-22.3
			c-0.3-1.8-0.8-6.4-2.4-6.5c-4.5-0.5-2.5,13.9-2.2,17.7c1.7,20.4,8.2,34.4,17,46.2c-5.1,0-10.2,0-15.3,0
			c-7.9-13-10.8-33.6-9.2-55.9c0.2-2.9,0.7-7.4-0.7-8c-3-1.2-3.3,3.9-3.6,5.8c-1.4,7.2-2.7,16.7-5.1,22.8
			c-3.7,9.2-14.2,20-25.5,21.1c-10.3,1-17.8-5.1-21.1-11.4c-1-2-1.4-4.5-2.7-6.8c-1.4-2.5-3.4-4.9-5.3-6.5c-1.9-1.6-4.2-2.3-6.1-3.6
			c-3.9-2.9-10.1-11.2-7.8-20.1c1.1-4.1,5.1-10.6,8-13.3c4.1-3.9,10.4-8.3,17.2-9.7c7.4-1.5,20.1-0.7,29.1-0.7
			c2.8,0,7.4,0.7,7.8-1.7c0.4-2.9-4.8-3-7.8-3.1c-9.1-0.5-22.4-0.4-29.8-2.9c-10.8-3.6-22.1-14.5-22.1-27.4c0-6.2,2.6-11.1,6.1-14.5
			c3.6-3.5,7.9-4.7,11.4-7c6.6-4.4,7.5-10.9,12.1-15.7c3.2-3.3,8.9-6.6,14.8-6.8c8.2-0.2,14.3,3.5,18.7,7c2.9,2.3,5.5,5.9,7.8,9.2
			c5.7,8.6,4.9,22.9,5.8,36.3c0.2,2.8,0.7,5.6,2.7,5.6c2.9,0,2.8-7.5,2.9-8.7c0.6-10.8,1-23.6,4.1-30.3c4.4-9.6,14.7-19,26.7-19.1
			c7.7-0.1,13.7,3.5,17.5,8.5c3.4,4.5,5.4,11,11.1,14.5c3.9,2.4,8.4,3.8,11.4,7c6.9,7.3,6.9,20.3,0.5,28.8
			c-4.8,6.3-13,12.4-23.3,13.8c-6.1,0.8-18,1.6-25.7,1.9c-3.1,0.1-6.7,0.1-6.5,2.7c0.1,2.7,4.9,1.9,7.8,1.9
			c14.2,0,28.7-0.9,37.8,3.6C400.5,97.2,407.1,105.4,409.1,114.9z"/>
		<g>
			<path class="st3" d="M391.8,160.2l-0.6,0.8l-2.9-2.2c0,0.5,0,1-0.2,1.4l-0.7-0.5c0.1-0.2,0.1-0.6,0.1-0.9c0-0.4-0.1-0.7-0.3-1
				l0.5-0.6L391.8,160.2z"/>
			<path class="st3" d="M391,156.7c-0.2,0.1-0.5,0.2-0.7,0.2c-0.2,0-0.4-0.1-0.6-0.2c-0.3-0.2-0.5-0.5-0.5-0.9
				c0-0.4,0.1-0.7,0.4-1.1c0.3-0.4,0.6-0.6,1-0.7c0.4-0.1,0.7,0,1,0.3c0.2,0.1,0.3,0.3,0.4,0.5c0.1,0.2,0.1,0.4,0,0.7
				c0.3-0.2,0.5-0.2,0.8-0.2c0.3,0,0.5,0.1,0.7,0.3c0.4,0.3,0.6,0.6,0.6,1c0.1,0.4-0.1,0.8-0.4,1.2c-0.3,0.4-0.6,0.6-1,0.7
				c-0.4,0.1-0.9,0-1.3-0.3c-0.2-0.2-0.4-0.4-0.5-0.6C390.9,157.3,390.9,157,391,156.7z M390.4,156c0.2,0.1,0.3,0.2,0.5,0.1
				c0.2,0,0.3-0.1,0.4-0.2c0.1-0.1,0.2-0.3,0.1-0.5c0-0.2-0.1-0.3-0.3-0.4c-0.1-0.1-0.3-0.2-0.4-0.1c-0.2,0-0.3,0.1-0.4,0.2
				c-0.1,0.1-0.2,0.3-0.1,0.5C390.1,155.7,390.2,155.9,390.4,156z M392,157.4c0.2,0.2,0.4,0.2,0.6,0.2c0.2,0,0.4-0.1,0.5-0.3
				c0.1-0.2,0.2-0.3,0.1-0.5c0-0.2-0.2-0.4-0.4-0.5c-0.2-0.1-0.4-0.2-0.6-0.2c-0.2,0-0.4,0.1-0.5,0.3c-0.1,0.2-0.2,0.4-0.1,0.6
				C391.8,157.1,391.9,157.2,392,157.4z"/>
			<path class="st3" d="M392.4,151.1l0.6-0.8l2.2,1.7c0.3,0.3,0.6,0.4,0.7,0.5c0.2,0.1,0.4,0.1,0.6,0.1c0.2-0.1,0.4-0.2,0.6-0.4
				c0.2-0.2,0.3-0.4,0.3-0.6c0-0.2-0.1-0.3-0.2-0.5c-0.1-0.1-0.3-0.3-0.7-0.6l-2.2-1.7l0.6-0.8l2.1,1.6c0.5,0.4,0.8,0.7,1,0.8
				c0.2,0.2,0.3,0.4,0.3,0.6c0,0.2,0,0.5,0,0.7c-0.1,0.3-0.2,0.5-0.5,0.9c-0.3,0.4-0.6,0.6-0.8,0.8c-0.2,0.1-0.5,0.2-0.7,0.2
				c-0.2,0-0.4,0-0.6-0.1c-0.3-0.1-0.6-0.4-1.1-0.7L392.4,151.1z"/>
			<path class="st3" d="M398,149.4l0.5-0.8c0.3,0.2,0.6,0.2,0.8,0.2c0.2-0.1,0.4-0.2,0.6-0.4c0.2-0.3,0.3-0.5,0.3-0.7
				c0-0.2-0.1-0.4-0.2-0.5c-0.1-0.1-0.2-0.1-0.3-0.1c-0.1,0-0.2,0.1-0.4,0.2c-0.1,0.1-0.3,0.2-0.7,0.5c-0.4,0.4-0.8,0.6-1.1,0.6
				c-0.4,0.1-0.8,0-1.1-0.2c-0.2-0.2-0.4-0.4-0.4-0.6c-0.1-0.3-0.1-0.5,0-0.8c0.1-0.3,0.2-0.6,0.5-0.9c0.4-0.5,0.8-0.8,1.2-0.9
				c0.4-0.1,0.8,0,1.2,0.3l-0.6,0.8c-0.2-0.1-0.4-0.2-0.6-0.1c-0.2,0-0.4,0.2-0.5,0.4c-0.2,0.2-0.3,0.5-0.3,0.7c0,0.1,0,0.2,0.2,0.3
				c0.1,0.1,0.2,0.1,0.3,0.1c0.2,0,0.4-0.2,0.8-0.5c0.4-0.3,0.7-0.5,1-0.7c0.2-0.1,0.5-0.2,0.7-0.1c0.3,0,0.5,0.1,0.8,0.3
				c0.2,0.2,0.4,0.4,0.5,0.7c0.1,0.3,0.1,0.6,0,0.9c-0.1,0.3-0.3,0.6-0.5,1c-0.4,0.5-0.8,0.8-1.2,0.9
				C399,149.8,398.5,149.7,398,149.4z"/>
			<path class="st3" d="M402.8,142.7l0.8-0.6c0.3,0.5,0.5,0.9,0.5,1.4c0,0.4-0.2,0.9-0.5,1.3c-0.4,0.5-0.9,0.8-1.6,0.9
				c-0.6,0.1-1.3-0.1-1.9-0.6c-0.7-0.5-1.1-1.1-1.2-1.7c-0.1-0.6,0.1-1.2,0.5-1.8c0.4-0.5,0.8-0.8,1.3-0.9c0.3-0.1,0.7,0,1.1,0.2
				l-0.4,0.9c-0.2-0.1-0.5-0.1-0.7-0.1c-0.2,0.1-0.4,0.2-0.6,0.4c-0.2,0.3-0.3,0.6-0.2,1c0.1,0.3,0.3,0.7,0.8,1.1
				c0.5,0.4,0.9,0.6,1.3,0.6c0.4,0,0.6-0.2,0.9-0.5c0.2-0.2,0.2-0.5,0.2-0.7C403.2,143.3,403.1,143,402.8,142.7z"/>
			<path class="st3" d="M403.2,138.5l-0.7-0.5l2-2.6l0.6,0.4c0,0.4,0.2,0.8,0.4,1.4c0.2,0.5,0.5,1,0.9,1.5c0.4,0.5,0.7,0.8,1.1,1.1
				l-0.6,0.7c-0.5-0.4-1-1-1.4-1.6c-0.4-0.7-0.7-1.3-0.9-2L403.2,138.5z"/>
			<path class="st3" d="M405.8,133.5c0.3-0.4,0.7-0.6,1.1-0.6c0.5,0,1.2,0.3,1.9,0.9c0.8,0.6,1.2,1.1,1.3,1.6c0.1,0.4,0,0.8-0.3,1.2
				c-0.3,0.4-0.7,0.6-1.2,0.6c-0.5,0-1.1-0.3-1.9-0.9c-0.8-0.6-1.2-1.1-1.3-1.6C405.4,134.3,405.5,133.9,405.8,133.5z M406.5,134
				c-0.1,0.1-0.1,0.2-0.1,0.3c0,0.1,0.1,0.3,0.2,0.4c0.2,0.2,0.5,0.5,0.9,0.8c0.5,0.4,0.8,0.6,1,0.7c0.2,0.1,0.4,0.1,0.5,0.1
				c0.1,0,0.2-0.1,0.3-0.2c0.1-0.1,0.1-0.2,0.1-0.3c0-0.1-0.1-0.3-0.2-0.4c-0.2-0.2-0.5-0.5-0.9-0.8c-0.5-0.4-0.8-0.6-1-0.7
				c-0.2-0.1-0.4-0.1-0.5-0.1C406.6,133.8,406.5,133.9,406.5,134z"/>
			<path class="st3" d="M408,132.3l-0.7-0.5l2-2.6l0.6,0.4c0,0.4,0.2,0.8,0.4,1.4c0.2,0.5,0.5,1,0.9,1.5c0.4,0.5,0.7,0.8,1.1,1.1
				l-0.6,0.7c-0.5-0.4-1-1-1.4-1.6c-0.4-0.7-0.7-1.3-0.9-2L408,132.3z"/>
		</g>
		<g>
			<path class="st4" d="M291.9,71.7L269,49.4l4.5-4.6l9,8.8l8.8-9.1l-9-8.8l4.5-4.6l22.9,22.3l-4.5,4.6l-10-9.8l-8.8,9.1l10,9.8
				L291.9,71.7z"/>
		</g>
		<g>
			<path class="st4" d="M344.2,52.8l23.2-22l4.4,4.7l-9.1,8.7l8.7,9.2l9.1-8.7l4.4,4.7l-23.2,22l-4.4-4.7l10.2-9.6l-8.7-9.2
				l-10.2,9.6L344.2,52.8z"/>
		</g>
		<g>
			<path class="st4" d="M365.7,102.7l24.9,20.1l-4,5l-9.8-7.9l-8,9.8l9.8,7.9l-4,5l-24.9-20.1l4-5l10.9,8.8l8-9.8l-10.9-8.8
				L365.7,102.7z"/>
		</g>
		<g>
			<path class="st4" d="M305.1,121.7l-24.4,20.7l-4.2-4.9l9.6-8.2l-8.2-9.6l-9.6,8.2l-4.2-4.9l24.4-20.7l4.2,4.9l-10.7,9.1l8.2,9.6
				l10.7-9.1L305.1,121.7z"/>
		</g>
	</g>
	<g>
		<g>
			<path class="st5" d="M176.8,174.6c-1.9,0-3.5-1.6-3.5-3.5c0-2,1.6-3.5,3.5-3.5c1.9,0,3.4,1.6,3.4,3.5
				C180.3,173,178.8,174.6,176.8,174.6z"/>
			<path class="st1" d="M176.9,166.7c-2.5,0-4.4,1.9-4.4,4.4c0,2.4,2,4.4,4.4,4.4s4.4-1.9,4.4-4.4
				C181.2,168.7,179.3,166.7,176.9,166.7z M176.8,174.6c-1.9,0-3.5-1.6-3.5-3.5c0-2,1.6-3.5,3.5-3.5c1.9,0,3.4,1.6,3.4,3.5
				C180.3,173,178.8,174.6,176.8,174.6z"/>
			<g>
				<path class="st1" d="M175.1,168.5h1.5c0.6,0,0.9,0,1.2,0.2c0.4,0.2,0.7,0.7,0.7,1.2c0,0.4-0.1,0.8-0.4,1
					c-0.2,0.2-0.3,0.3-0.6,0.4l-0.1,0.1l1.2,2.3h-0.9l-1.1-2.2H176v2.2h-0.9V168.5z M176.4,170.7c0,0,0.3,0,0.4,0
					c0.4-0.1,0.6-0.4,0.6-0.8c0-0.3-0.1-0.6-0.4-0.7c-0.1,0-0.2,0-0.7,0H176v1.5H176.4z"/>
			</g>
		</g>
		<g>
			<path class="st1" d="M163.8,9.8h-58.8h-5.4v5.4v38.1v5.4h5.4h5.4v27L63.8,12.4l-1.6-2.5h-3H9.1H3.6v5.4v38.1v5.4h5.4h5.4v67.5
				H9.1H3.6v5.4V170v5.4h5.4h58.8h5.4V170v-38.1v-5.4h-5.4h-5.4v-27l46.6,73.5l1.6,2.5h3h50.1h5.4V170v-38.1v-5.4h-5.4h-5.4V58.9
				h5.4h5.4v-5.4V15.3V9.8H163.8z M167,15.3v38.1v3.3h-3.3h-7.6v71.9h7.6h3.3v3.3V170v3.3h-3.3h-50.1h-1.8l-1-1.5L60.3,91.9v36.7
				h7.6h3.3v3.3V170v3.3h-3.3H9.1H5.8V170v-38.1v-3.3h3.3h7.6V56.7H9.1H5.8v-3.3V15.3V12h3.3h50.1H61l1,1.5l50.6,79.8V56.7h-7.6
				h-3.3v-3.3V15.3V12h3.3h58.8h3.3V15.3z"/>
			<path class="st5" d="M163.8,12h-58.8h-3.3v3.3v38.1v3.3h3.3h7.6v36.7L61.9,13.5L61,12h-1.8H9.1H5.8v3.3v38.1v3.3h3.3h7.6v71.9
				H9.1H5.8v3.3V170v3.3h3.3h58.8h3.3V170v-38.1v-3.3h-3.3h-7.6V91.9l50.6,79.8l1,1.5h1.8h50.1h3.3V170v-38.1v-3.3h-3.3h-7.6V56.7
				h7.6h3.3v-3.3V15.3V12H163.8z M67.9,131.8L67.9,131.8V170H9.1v-38.1v0c0,0,8.5,0,10.9,0c0-3.6,0-74.8,0-78.4
				c-2.4,0-10.9,0-10.9,0V15.3h50.1l56.7,89.3c0,0,0-48.4,0-51.2c-2.4,0-10.9,0-10.9,0V15.3h58.8v38.1c0,0-8.5,0-10.9,0
				c0,3.6,0,74.8,0,78.4c2.4,0,10.9,0,10.9,0v0V170h-50.1L57,80.6c0,0,0,48.4,0,51.2C59.4,131.8,67.9,131.8,67.9,131.8z"/>
		</g>
		<path class="st1" d="M115.8,104.6L115.8,104.6L59.2,15.3H9.1v38.1c0,0,8.5,0,10.9,0c0,3.6,0,74.8,0,78.4v0c-2.4,0-10.9,0-10.9,0
			V170h58.8v-38.1c0,0-8.5,0-10.9,0v0c0-2.8,0-51.2,0-51.2l56.7,89.3h50.1v-38.1c0,0-8.5,0-10.9,0v0c0-3.6,0-74.8,0-78.4
			c2.4,0,10.9,0,10.9,0V15.3h-58.8v38.1c0,0,8.5,0,10.9,0C115.8,56.2,115.8,104.6,115.8,104.6z"/>
	</g>
</g>
</svg>
