<?xml version="1.0" encoding="utf-8"?>
<!-- Generator: Adobe Illustrator 21.0.0, SVG Export Plug-In . SVG Version: 6.00 Build 0)  -->
<svg version="1.1" id="Layer_1" xmlns="http://www.w3.org/2000/svg" xmlns:xlink="http://www.w3.org/1999/xlink" x="0px" y="0px"
	 viewBox="0 0 462.1 241.9" style="enable-background:new 0 0 462.1 241.9;" xml:space="preserve">
<style type="text/css">
	.st0{fill:#DA1A32;}
</style>
<g>
	<ellipse class="st0" cx="306.2" cy="68.9" rx="0" ry="0"/>
	<path class="st0" d="M54.4,137.3c5.2-2.5,8.7-5.5,10.5-9.2s2.7-9.3,2.7-17.1c0-10.6-1.6-18.3-4.9-23.1S51.6,77,39,69.6
		c-4.4-2.6-7-4.8-8-6.6c-1-1.8-1.5-4.5-1.5-8.2c0-2.8,0.4-4.9,1.3-6.3s2.2-2.1,3.8-2.1c1.6,0,2.7,0.5,3.3,1.5c0.7,1,1,3.4,1,7.2v6.5
		c0,0.9,0.7,1.6,1.6,1.6h23c0.9,0,1.6-0.7,1.6-1.6v-2.7c0-8.6-0.8-14.7-2.5-18.3c-1.7-3.6-5.1-6.6-10.2-8.9
		c-5.2-2.4-11.4-3.5-18.7-3.5c-6.7,0-12.4,1.1-17.1,3.2c-4.7,2.2-8.1,5.2-10.3,9c-2.1,3.8-3.2,9.9-3.2,18.2c0,5.8,0.7,10.5,2.2,14.2
		s3.4,6.6,5.7,8.7c2.3,2.1,6.9,5.5,13.9,10.1s11.4,7.9,13.2,9.8c1.7,2,2.6,6.1,2.6,12.5c0,2.9-0.5,5.1-1.4,6.6s-2.3,2.2-4.2,2.2
		s-3.2-0.6-3.9-1.7c-0.7-1.2-1.1-3.8-1.1-7.8v-11.6c0-0.9-0.7-1.6-1.6-1.6h-23c-0.9,0-1.6,0.7-1.6,1.6v5.5c0,8.1,0.8,14.4,2.5,18.8
		c1.6,4.4,5.1,8,10.5,10.9c5.3,2.9,11.8,4.3,19.3,4.3C43.2,141,49.3,139.8,54.4,137.3z"/>
	<path class="st0" d="M116.4,53.7c0-0.9,0.7-1.6,1.6-1.6h13.6c0.9,0,1.6-0.7,1.6-1.6V32c0-0.9-0.7-1.6-1.6-1.6H73.2
		c-0.9,0-1.6,0.7-1.6,1.6v18.6c0,0.9,0.7,1.6,1.6,1.6h13.6c0.9,0,1.6,0.7,1.6,1.6v83.5c0,0.9,0.7,1.6,1.6,1.6h25.1
		c0.9,0,1.6-0.7,1.6-1.6V53.7H116.4z"/>
	<path class="st0" d="M188.4,137.2v-18.6c0-0.9-0.7-1.6-1.6-1.6h-17.6c-0.9,0-1.6-0.7-1.6-1.6V94.7c0-0.9,0.7-1.6,1.6-1.6h14.5
		c0.9,0,1.6-0.7,1.6-1.6V74c0-0.9-0.7-1.6-1.6-1.6h-14.5c-0.9,0-1.6-0.7-1.6-1.6V53.7c0-0.9,0.7-1.6,1.6-1.6H185
		c0.9,0,1.6-0.7,1.6-1.6V32c0-0.9-0.7-1.6-1.6-1.6h-43.8c-0.9,0-1.6,0.7-1.6,1.6v105.2c0,0.9,0.7,1.6,1.6,1.6h45.7
		C187.7,138.8,188.4,138.1,188.4,137.2z"/>
	<path class="st0" d="M258.8,137.2c0,0.9,0.7,1.6,1.6,1.6h11.8l-13.4-6.9V137.2z"/>
	<path class="st0" d="M283.4,32c0-0.9-0.7-1.6-1.6-1.6h-33.7c-0.8,0-1.4,0.6-1.5,1.4l-4.9,37.9c-0.2,1.8-2.8,1.8-3.1,0l-2.4-16.3
		c-1.1-8.3-2.1-15.5-3.1-21.7c-0.1-0.8-0.8-1.3-1.5-1.3H198c-0.9,0-1.6,0.7-1.6,1.6v105.2c0,0.9,0.7,1.6,1.6,1.6h21.5
		c0.9,0,1.6-0.7,1.6-1.6V88.8c0-1.9,2.8-2.1,3.1-0.2l7.1,48.8c0.1,0.8,0.8,1.3,1.5,1.3h14.8c0.8,0,1.4-0.6,1.5-1.3l1.3-9.8
		l-18.3-9.4l21-10.8l2.5-18.8c0.3-1.9,3.1-1.7,3.1,0.2v15.7l24.6-12.7L283.4,32L283.4,32z"/>
	<polygon class="st0" points="250.4,127.6 253.1,107.4 232.2,118.2 	"/>
	<path class="st0" d="M283.4,137.2V91.9l-24.6,12.7v27.3l13.4,6.9h9.7C282.7,138.8,283.4,138.1,283.4,137.2z"/>
	<path class="st0" d="M374,121.3c0.1,0.3,0.4,0.6,1.2,0.6c1,0,1.3-0.4,1.4-0.8c0.2-0.5,0.4-2,0.4-5.7v-7.8l-3.4,4.4v4.8
		C373.6,119.7,373.8,120.8,374,121.3z"/>
	<path class="st0" d="M300,83.4h7.3c1.1,0,1.9,0.9,1.9,1.9v52c0,1.1-0.9,1.9-1.9,1.9h-14.7c-1.1,0-1.9-0.9-1.9-1.9V88.1l-7.3,3.7
		v45.3c0,0.9-0.7,1.6-1.6,1.6h-9.7l27.2,14l0,0l15.3,8.1l9.4,14.5l40.1,63.9L462.1,0L300,83.4z M395.2,85.3V126
		c0,5.8-0.1,9.4-0.4,11.1c-0.3,1.8-1.3,3.7-2.9,5.6c-1.7,1.9-4,3.4-7,4.4c-2.9,1-6.6,1.5-10.9,1.5c-5.4,0-9.8-0.9-13.1-2.8
		c-3.2-1.8-4.9-5.1-5.3-9.9c0-0.5,0.1-1,0.5-1.4s0.9-0.6,1.4-0.6h13.7c1,0,1.8,0.7,1.9,1.7c0.2,1.7,1,1.9,1.8,1.9
		c1.4,0,1.7-0.5,1.8-0.7c0.2-0.3,0.5-1.4,0.5-4.3v-1.6c0-0.2-0.1-0.3-0.2-0.4c-0.1,0-0.3-0.1-0.5,0c-0.9,0.6-1.8,1.1-2.8,1.5
		c-1.7,0.7-3.4,1-5.2,1c-3.1,0-5.7-0.6-7.8-1.9c-0.5-0.3-1-0.7-1.4-1l-6.3,8.1c-0.1,0.2-0.2,0.4-0.4,0.5L326,173l-0.1-0.2l-9.3-14.2
		l-15-8l-0.2-0.1l12.7-11.8c-0.3-0.3-0.5-0.8-0.5-1.3v-52c0-1.1,0.9-1.9,1.9-1.9H330c0.5,0,1.1,0.2,1.4,0.6c0.4,0.4,0.6,0.9,0.5,1.4
		c0,0.3,0.2,0.4,0.3,0.4c0.1,0,0.3,0.1,0.5-0.1c0.7-0.7,1.5-1.3,2.4-1.8c1.8-1.1,4-1.6,6.4-1.6c3,0,5.5,0.7,7.4,2.2
		c1.9,1.4,3.2,3.3,3.8,5.5c0.5,2.1,0.8,5.5,0.8,10.4v1.8l2.1-2v-2.5c0-5.3,1-9.2,3-11.6c2-2.4,5.1-3.7,9.1-3.7c2.1,0,4,0.4,5.8,1.2
		l81.3-75.5l0,0L395,84.5C395.1,84.8,395.2,85,395.2,85.3z"/>
	<path class="st0" d="M335,94.2c-0.1-0.2-0.2-0.7-1.3-0.7c-1.1,0-1.3,0.4-1.5,0.9c-0.2,0.6-0.4,2.3-0.4,7.3v20.5l3.6-3.3v-18.1
		C335.3,96.3,335.1,94.7,335,94.2z"/>
	<path class="st0" d="M291.4,85.3c0-0.7,0.5-1.2,1.2-1.2h5.9l1.5-0.8h-7.4c-1.1,0-1.9,0.9-1.9,1.9V88l0.8-0.4v-2.3H291.4z"/>
	<path class="st0" d="M292.6,139.3h14.7c1.1,0,1.9-0.9,1.9-1.9v-52c0-1.1-0.9-1.9-1.9-1.9H300l-1.5,0.8h8.8c0.7,0,1.2,0.5,1.2,1.2
		v52c0,0.7-0.5,1.2-1.2,1.2h-14.7c-0.7,0-1.2-0.5-1.2-1.2V87.9l-0.8,0.4v49.2C290.6,138.4,291.5,139.3,292.6,139.3z"/>
	<path class="st0" d="M291.4,85.3v2.5l0.8-0.4v-2.1c0-0.2,0.2-0.4,0.4-0.4h4.4l1.5-0.8h-5.9C291.9,84.1,291.4,84.6,291.4,85.3z"/>
	<path class="st0" d="M307.3,84.9c0.2,0,0.4,0.2,0.4,0.4v52c0,0.2-0.2,0.4-0.4,0.4h-14.7c-0.2,0-0.4-0.2-0.4-0.4v-50l-0.8,0.4v49.6
		c0,0.7,0.5,1.2,1.2,1.2h14.7c0.7,0,1.2-0.5,1.2-1.2v-52c0-0.7-0.5-1.2-1.2-1.2h-8.8l-1.5,0.8H307.3z"/>
	<path class="st0" d="M329.8,139.3c1.1,0,1.9-0.9,1.9-1.9v-15.1l-0.8,0.7v14.4c0,0.7-0.5,1.2-1.2,1.2h-14.2c-0.4,0-0.7-0.2-0.9-0.4
		l-0.6,0.5c0.4,0.4,0.9,0.7,1.5,0.7L329.8,139.3L329.8,139.3z"/>
	<path class="st0" d="M353.4,102.2l-0.8,0.7v34.5c0,0.7-0.5,1.2-1.2,1.2h-14.2c-0.7,0-1.2-0.5-1.2-1.2v-19.1l-0.8,0.7v18.4
		c0,1.1,0.9,1.9,2,1.9h14.2c0.5,0,1-0.2,1.3-0.5l0.4-0.5c0.2-0.3,0.2-0.6,0.2-0.9v-35.2H353.4z"/>
	<path class="st0" d="M335.7,94c-0.2-0.8-0.9-1.2-2.1-1.2s-1.9,0.5-2.2,1.4c-0.3,0.9-0.5,3.5-0.5,7.6V123l0.8-0.7v-20.5
		c0-5,0.2-6.7,0.4-7.3c0.1-0.4,0.4-0.9,1.5-0.9s1.3,0.5,1.3,0.7c0.2,0.5,0.3,2.1,0.3,6.6V119l0.8-0.7v-17.4
		C336.1,97.1,335.9,94.8,335.7,94z"/>
	<path class="st0" d="M353.1,138.3l-0.4,0.5C352.9,138.6,353,138.5,353.1,138.3z"/>
	<path class="st0" d="M314.4,137.3v-52c0-0.7,0.5-1.2,1.2-1.2H330c0.7,0,1.2,0.6,1.2,1.3c-0.1,1.1,1.2,1.7,2,0.9
		c0.7-0.7,1.4-1.2,2.2-1.7c1.7-1,3.7-1.5,6-1.5c2.8,0,5.2,0.7,7,2s3,3,3.5,5.1c0.5,2,0.8,5.4,0.8,10.2v2.5l0.8-0.7v-1.8
		c0-4.9-0.3-8.3-0.8-10.4c-0.6-2.2-1.8-4-3.8-5.5c-1.9-1.4-4.4-2.2-7.4-2.2c-2.4,0-4.5,0.5-6.4,1.6c-0.8,0.5-1.6,1.1-2.4,1.8
		c-0.2,0.2-0.4,0.1-0.5,0.1s-0.3-0.2-0.3-0.4c0-0.5-0.2-1.1-0.5-1.4c-0.4-0.4-0.9-0.6-1.4-0.6h-14.4c-1.1,0-1.9,0.9-1.9,1.9v52
		c0,0.5,0.2,0.9,0.5,1.3l0.6-0.5C314.5,137.9,314.4,137.6,314.4,137.3z"/>
	<path class="st0" d="M330.2,137.3c0,0.2-0.2,0.4-0.4,0.4h-14.2c-0.1,0-0.3-0.1-0.3-0.2l-0.6,0.5c0.2,0.3,0.5,0.4,0.9,0.4h14.2
		c0.7,0,1.2-0.5,1.2-1.2v-14.4l-0.8,0.7L330.2,137.3L330.2,137.3z"/>
	<path class="st0" d="M351.9,137.3c0,0.2-0.2,0.4-0.4,0.4h-14.2c-0.2,0-0.4-0.2-0.4-0.4v-19.8l-0.8,0.7v19.1c0,0.7,0.5,1.2,1.2,1.2
		h14.2c0.7,0,1.2-0.5,1.2-1.2v-34.4l-0.8,0.7L351.9,137.3L351.9,137.3z"/>
	<path class="st0" d="M351.8,90.2c-0.5-2-1.7-3.7-3.5-5.1c-1.8-1.3-4.1-2-7-2c-2.3,0-4.3,0.5-6,1.5c-0.8,0.5-1.5,1-2.2,1.7
		c-0.8,0.7-2.1,0.1-2-0.9c0-0.7-0.5-1.3-1.2-1.3h-14.4c-0.7,0-1.2,0.5-1.2,1.2v52c0,0.3,0.1,0.6,0.3,0.8l0.6-0.5
		c0-0.1-0.1-0.1-0.1-0.2v-52c0-0.2,0.2-0.4,0.4-0.4H330c0.2,0,0.3,0.1,0.3,0.1c0,0.1,0.1,0.2,0.1,0.3l0,0c0,0.8,0.4,1.5,1.1,1.9
		c0.7,0.3,1.6,0.2,2.1-0.4c0.6-0.6,1.3-1.1,2-1.6c1.6-0.9,3.5-1.4,5.6-1.4c2.7,0,4.9,0.6,6.5,1.9c1.7,1.2,2.7,2.8,3.2,4.6
		c0.5,2,0.8,5.3,0.8,10v3.2l0.8-0.7v-2.5C352.6,95.6,352.4,92.2,351.8,90.2z"/>
	<path class="st0" d="M336.8,100.8c0-5.1-0.2-6.5-0.4-7.1c-0.2-0.7-0.8-1.8-2.8-1.8c-1.9,0-2.7,1.1-2.9,1.9
		c-0.2,0.7-0.5,2.2-0.5,7.8v21.9l0.8-0.7v-21.2c0-4.1,0.2-6.6,0.5-7.6c0.3-0.9,1-1.4,2.2-1.4c1.1,0,1.8,0.4,2.1,1.2s0.4,3.1,0.4,6.8
		V118l0.8-0.7v-16.5H336.8z"/>
	<path class="st0" d="M393.2,83.4h-13.3c-0.9,0-1.6,0.6-1.9,1.4l-0.4,1.2c-0.1,0.2-0.2,0.3-0.3,0.3c-0.1,0-0.3,0-0.4-0.1
		c-1-1-2.2-1.8-3.4-2.4c-0.1,0-0.2-0.1-0.2-0.1l-0.6,0.6c0.2,0.1,0.3,0.1,0.5,0.2c1.1,0.6,2.2,1.3,3.2,2.3c0.6,0.6,1.7,0.4,2-0.5
		l0.4-1.2c0.1-0.5,0.6-0.9,1.1-0.9h13.3c0.7,0,1.2,0.5,1.2,1.2l0,0l0.6-0.8C394.7,83.8,394,83.4,393.2,83.4z"/>
	<path class="st0" d="M357.4,125.8c-0.7-2-1.1-4.7-1.1-8.3v-18l-0.8,0.7v17.3c0,3.7,0.4,6.6,1.1,8.6c0.6,1.6,1.5,2.9,2.8,4.1
		l0.5-0.6C358.7,128.5,357.9,127.2,357.4,125.8z"/>
	<path class="st0" d="M377.4,93.8c-0.3-0.7-0.9-1-1.9-1s-1.6,0.4-2,1.2s-0.6,2.3-0.6,4.6V113l0.8-1V98.5c0-2.7,0.3-3.8,0.5-4.3
		c0.3-0.5,0.7-0.8,1.4-0.8c1,0,1.1,0.4,1.2,0.6c0.1,0.3,0.4,1.3,0.4,4.5v9.1l0.8-1v-8.1C377.8,96.1,377.7,94.5,377.4,93.8z"/>
	<path class="st0" d="M394.4,126c0,5.7-0.1,9.3-0.4,11s-1.2,3.4-2.8,5.2c-1.6,1.8-3.8,3.3-6.6,4.2c-2.8,1-6.4,1.5-10.7,1.5
		c-5.3,0-9.5-0.9-12.7-2.7c-2.9-1.6-4.6-4.7-4.9-9.3c0-0.7,0.5-1.2,1.2-1.2h13.7c0.6,0,1.1,0.4,1.2,1c0.2,1.7,1.1,2.6,2.6,2.6
		c1.3,0,2.1-0.4,2.5-1.1c0.4-0.7,0.6-2.3,0.6-4.6v-1.7c0-1-1.1-1.5-1.9-1c-0.8,0.6-1.7,1.1-2.6,1.4c-1.6,0.7-3.2,1-4.9,1
		c-3,0-5.4-0.6-7.4-1.8c-0.5-0.3-0.9-0.6-1.4-1l-0.5,0.6c0.4,0.4,0.9,0.7,1.4,1c2,1.3,4.7,1.9,7.8,1.9c1.8,0,3.6-0.4,5.2-1
		c0.9-0.4,1.9-0.9,2.8-1.5c0.2-0.1,0.4-0.1,0.5,0c0.1,0,0.2,0.1,0.2,0.4v1.7c0,2.9-0.3,3.9-0.5,4.3c-0.1,0.2-0.4,0.7-1.8,0.7
		c-0.8,0-1.6-0.2-1.8-1.9c-0.1-1-1-1.7-1.9-1.7h-13.7c-0.5,0-1.1,0.2-1.4,0.6c-0.4,0.4-0.5,0.9-0.5,1.4c0.3,4.8,2.1,8.2,5.3,9.9
		c3.3,1.8,7.7,2.8,13.1,2.8c4.4,0,8-0.5,10.9-1.5s5.3-2.5,7-4.4s2.7-3.8,2.9-5.6c0.3-1.7,0.4-5.3,0.4-11.1V85.4
		c0-0.3-0.1-0.5-0.2-0.8l-0.6,0.8V126H394.4z"/>
	<path class="st0" d="M356.3,97.7c0-5.2,0.9-8.9,2.8-11.2s4.7-3.4,8.5-3.4c1.9,0,3.6,0.3,5.2,1l0.6-0.6c-1.7-0.8-3.7-1.2-5.8-1.2
		c-4,0-7.1,1.2-9.1,3.7c-2,2.4-3,6.3-3,11.6v2.5l0.8-0.7V97.7z"/>
	<path class="st0" d="M377.1,115.4c0,3.7-0.2,5.1-0.4,5.7c-0.2,0.4-0.4,0.8-1.4,0.8c-0.8,0-1.1-0.3-1.2-0.6
		c-0.2-0.4-0.4-1.6-0.4-4.4v-4.8l-0.8,1v3.8c0,2.4,0.2,4,0.5,4.7s0.9,1.1,1.9,1.1c1.1,0,1.8-0.4,2.1-1.3c0.3-0.9,0.5-2.9,0.5-5.9
		v-8.8l-0.8,1L377.1,115.4L377.1,115.4z"/>
	<path class="st0" d="M358.1,125.5c-0.7-1.9-1-4.6-1-8.1V98.7l-0.8,0.7v18c0,3.6,0.4,6.4,1.1,8.3c0.5,1.5,1.4,2.7,2.6,3.7l0.5-0.6
		C359.3,128,358.5,126.8,358.1,125.5z"/>
	<path class="st0" d="M372.9,85.1c1.1,0.5,2.1,1.3,3,2.1c0.5,0.5,1.2,0.7,1.9,0.5c0.7-0.2,1.2-0.7,1.4-1.3l0.4-1.2
		c0.1-0.2,0.2-0.3,0.4-0.3h13.3c0.2,0,0.4,0.2,0.4,0.4v1l0.8-1l0,0c0-0.7-0.5-1.2-1.2-1.2H380c-0.5,0-1,0.3-1.1,0.9l-0.4,1.2
		c-0.3,0.9-1.3,1.1-2,0.5c-1-1-2-1.7-3.2-2.3c-0.2-0.1-0.3-0.2-0.5-0.2l-0.6,0.6C372.4,84.8,372.6,85,372.9,85.1z"/>
	<path class="st0" d="M372.9,98.5c0-2.3,0.2-3.8,0.6-4.6s1.1-1.2,2-1.2c1,0,1.6,0.3,1.9,1s0.4,2.3,0.4,4.8v8.1l0.8-1v-7.1
		c0-3.5-0.3-4.5-0.5-5.1c-0.3-0.7-1-1.5-2.6-1.5c-1.2,0-2.2,0.5-2.7,1.6c-0.5,0.9-0.7,2.5-0.7,5v15.4l0.8-1L372.9,98.5L372.9,98.5z"
		/>
	<path class="st0" d="M359.1,86.5c-1.9,2.3-2.8,6-2.8,11.2v1.8l0.8-0.7v-1.1c0-5,0.9-8.6,2.6-10.7c1.7-2.1,4.3-3.1,7.9-3.1
		c1.6,0,3.2,0.3,4.6,0.9l0.6-0.6c-1.6-0.7-3.3-1-5.2-1C363.8,83.1,360.9,84.3,359.1,86.5z"/>
	<path class="st0" d="M393.7,126c0,5.6-0.1,9.2-0.4,10.8c-0.2,1.5-1.1,3.1-2.6,4.9c-1.5,1.7-3.6,3.1-6.3,4
		c-2.7,0.9-6.2,1.4-10.4,1.4c-5.1,0-9.3-0.9-12.3-2.6c-2.7-1.5-4.2-4.4-4.5-8.7c0-0.1,0.1-0.2,0.1-0.3c0.1-0.1,0.2-0.1,0.3-0.1h13.7
		c0.2,0,0.4,0.2,0.4,0.4c0.4,2.8,2.2,3.2,3.3,3.2c1.5,0,2.6-0.5,3.2-1.5c0.5-0.9,0.7-2.5,0.7-5v-1.6c0-0.7-0.4-1.4-1-1.7
		s-1.4-0.3-2,0.1c-0.8,0.5-1.6,1-2.5,1.4c-1.5,0.6-3,0.9-4.6,0.9c-2.8,0-5.2-0.6-7-1.7c-0.5-0.3-0.9-0.6-1.3-1l-0.5,0.6
		c0.4,0.4,0.9,0.7,1.4,1c1.9,1.2,4.4,1.8,7.4,1.8c1.7,0,3.4-0.3,4.9-1c0.9-0.4,1.8-0.9,2.6-1.4c0.8-0.5,1.9,0,1.9,1v1.7
		c0,2.4-0.2,3.9-0.6,4.6c-0.4,0.7-1.2,1.1-2.5,1.1c-1.5,0-2.3-0.9-2.6-2.6c-0.1-0.6-0.6-1-1.2-1h-13.7c-0.7,0-1.2,0.6-1.2,1.2
		c0.3,4.6,2,7.7,4.9,9.3c3.2,1.8,7.4,2.7,12.7,2.7c4.3,0,7.9-0.5,10.7-1.5c2.8-1,5-2.4,6.6-4.2s2.5-3.6,2.8-5.2
		c0.3-1.7,0.4-5.3,0.4-11V85.3l-0.8,1V126z"/>
	<path class="st0" d="M375.2,123.4c1.8,0,2.5-1,2.8-1.8c0.4-1,0.5-3,0.5-6.2v-9.8l-0.8,1v8.8c0,3.1-0.2,5.1-0.5,5.9
		c-0.3,0.9-1,1.3-2.1,1.3c-1,0-1.6-0.4-1.9-1.1c-0.3-0.7-0.5-2.3-0.5-4.7V113l-0.8,1v2.9c0,2.6,0.2,4.2,0.5,5
		C372.9,122.6,373.6,123.4,375.2,123.4z"/>
	<rect x="5.4" y="161.7" class="st0" width="3.3" height="46.4"/>
	<rect x="5.3" y="149.5" class="st0" width="3.5" height="5.8"/>
	<path class="st0" d="M30,161.3h-0.4c-3.5,0-5.8,1.5-8.9,3.9v-3.5h-3.2v46.4h3.2v-40.2c3.5-2.5,5.6-3.6,8.2-3.6h0.3
		c3.4,0,5.2,1.6,5.2,5v38.8h3.2v-39.3C37.6,163.8,35,161.3,30,161.3z"/>
	<polygon class="st0" points="50.8,153.9 47.5,153.9 47.5,161.7 43.8,161.7 43.8,164.7 47.5,164.7 47.5,208.1 50.8,208.1 
		50.8,164.7 56.8,164.7 56.8,161.7 50.8,161.7 	"/>
	<path class="st0" d="M72.2,161.3h-1.8c-6.3,0-9.6,3.2-9.6,9.6v28c0,6.3,3.2,9.6,9.6,9.6h1.8c6.3,0,9.5-3.2,9.5-9.6v-28.1
		C81.7,164.5,78.5,161.3,72.2,161.3z M78.5,199c0,4.3-2.1,6.3-6.3,6.3h-1.6c-4.3,0-6.3-2.1-6.3-6.3v-28.3c0-4.3,2.1-6.3,6.3-6.3h1.6
		c4.3,0,6.3,2.1,6.3,6.3V199z"/>
	<polygon class="st0" points="104.9,153.9 101.6,153.9 101.6,161.7 97.9,161.7 97.9,164.7 101.6,164.7 101.6,208.1 104.9,208.1 
		104.9,164.7 110.9,164.7 110.9,161.7 104.9,161.7 	"/>
	<path class="st0" d="M128.7,161.3h-0.4c-3.5,0-5.8,1.5-8.9,3.9v-18.8h-3.2v61.7h3.2v-40.2c3.5-2.5,5.6-3.6,8.3-3.6h0.3
		c3.4,0,5.2,1.6,5.2,5v38.8h3.2v-39.3C136.4,163.8,133.8,161.3,128.7,161.3z"/>
	<path class="st0" d="M154.9,161.3h-1c-6.4,0-9.6,3.3-9.6,9.6v28c0,6.3,3.2,9.6,9.6,9.6h1c6.3,0,9.6-3.3,9.6-9.6v-5.3h-3.2v5.4
		c0,4.3-2.2,6.4-6.4,6.4h-1c-4.3,0-6.4-2.2-6.4-6.4v-12.7h17v-15.4C164.5,164.6,161.2,161.3,154.9,161.3z M161.2,183.1h-13.7v-12.3
		c0-4.3,2.1-6.4,6.4-6.4h0.9c4.3,0,6.4,2.2,6.4,6.4L161.2,183.1L161.2,183.1z"/>
	<path class="st0" d="M184.2,154v7.6h-3.5v3h3.5v43.3h3.3v-43.3h6.4v-3h-6.4v-7.7c0-3,1.2-4.4,4.1-4.4h2.6v-3.1h-2.7
		C186.5,146.4,184.2,149,184.2,154z"/>
	<path class="st0" d="M215.8,201.9c-3.4,2.5-5.5,3.6-8.2,3.6h-0.3c-3.5,0-5.2-1.6-5.2-4.9v-38.8h-3.3v39.4c0,4.9,2.6,7.4,7.6,7.4
		h0.4c3.5,0,5.8-1.5,8.9-3.9v3.5h3.3v-46.4h-3.3v40.1H215.8z"/>
	<polygon class="st0" points="232.3,153.9 229,153.9 229,161.7 225.4,161.7 225.4,164.7 229,164.7 229,208.1 232.3,208.1 
		232.3,164.7 238.4,164.7 238.4,161.7 232.3,161.7 	"/>
	<path class="st0" d="M260.5,201.9c-3.4,2.5-5.5,3.6-8.2,3.6H252c-3.5,0-5.2-1.6-5.2-4.9v-38.8h-3.3v39.4c0,4.9,2.6,7.4,7.6,7.4h0.4
		c3.5,0,5.8-1.5,8.9-3.9v3.5h3.3v-46.4h-3.3v40.1H260.5z"/>
	<path class="st0" d="M275.4,166v-4.3h-3.2v46.4h3.2v-39.2c2.5-2.7,4.9-3.6,8.4-3.9v-3.6C280.1,161.4,277.7,163.1,275.4,166z"/>
	<path class="st0" d="M299,161.3h-1c-6.4,0-9.6,3.3-9.6,9.6v28c0,6.3,3.2,9.6,9.6,9.6h1c6.3,0,9.6-3.3,9.6-9.6v-5.3h-3.2v5.4
		c0,4.3-2.2,6.4-6.4,6.4h-1c-4.3,0-6.4-2.2-6.4-6.4v-12.7h17v-15.4C308.7,164.6,305.4,161.3,299,161.3z M305.4,183.1h-13.7v-12.3
		c0-4.3,2.1-6.4,6.4-6.4h0.9c4.3,0,6.4,2.2,6.4,6.4L305.4,183.1L305.4,183.1z"/>
</g>
</svg>
